<?xml version="1.0" standalone="no"?>
<!DOCTYPE svg PUBLIC "-//W3C//DTD SVG 20010904//EN"
 "http://www.w3.org/TR/2001/REC-SVG-20010904/DTD/svg10.dtd">
<svg version="1.0" xmlns="http://www.w3.org/2000/svg"
 width="512.000000pt" height="512.000000pt" viewBox="0 0 512.000000 512.000000"
 preserveAspectRatio="xMidYMid meet">
<metadata>
Created by potrace 1.11, written by Peter Selinger 2001-2013
</metadata>
<g transform="translate(0.000000,512.000000) scale(0.100000,-0.100000)"
fill="#000000" stroke="none">
<path d="M2448 4585 c-100 -37 -186 -131 -209 -230 -6 -27 -81 -260 -167 -517
l-155 -468 -836 -2 -836 -3 -46 -23 c-70 -34 -122 -84 -160 -154 l-34 -63 0
-1180 0 -1180 34 -63 c38 -70 90 -120 160 -154 43 -22 60 -23 297 -26 l251 -3
28 32 c22 27 26 39 21 68 -3 19 -15 44 -26 55 -19 20 -35 21 -250 26 -254 6
-258 7 -307 80 l-23 33 0 1132 0 1132 23 33 c12 18 35 43 50 54 l28 21 2269 0
2269 0 28 -21 c15 -11 38 -36 50 -54 l23 -33 0 -1132 0 -1132 -22 -33 c-13
-18 -36 -43 -51 -54 l-28 -21 -1934 -3 -1933 -2 -26 -31 c-35 -41 -35 -88 0
-123 l27 -26 1943 0 c1934 0 1944 0 1998 20 68 26 144 96 182 170 l29 55 0
1180 0 1180 -29 55 c-38 74 -114 144 -182 170 -54 20 -73 20 -878 20 l-823 0
-155 468 c-86 257 -161 490 -167 517 -24 101 -102 188 -201 226 -60 23 -176
24 -232 4z m154 -175 c45 -13 95 -68 103 -114 20 -104 -89 -199 -189 -166 -44
14 -93 69 -101 114 -13 67 35 146 101 166 39 11 44 11 86 0z m-184 -441 c109
-52 249 -37 348 36 21 16 22 14 128 -302 58 -175 106 -321 106 -325 0 -5 -198
-8 -440 -8 -242 0 -440 3 -440 8 0 4 48 150 106 325 106 316 107 318 128 302
11 -9 40 -25 64 -36z"/>
<path d="M770 2462 l-30 -30 0 -487 0 -487 29 -29 c48 -47 118 -35 150 28 7
13 11 88 11 198 l0 176 22 -3 c18 -2 44 -42 126 -193 56 -104 114 -200 128
-212 38 -34 98 -27 131 16 28 37 15 83 -76 251 l-88 164 41 29 c90 64 137 147
144 257 3 60 0 86 -18 132 -28 75 -96 150 -168 185 -54 26 -66 28 -214 31
l-158 4 -30 -30z m331 -177 c62 -33 89 -128 54 -195 -26 -50 -67 -71 -150 -77
l-75 -6 0 147 0 146 70 0 c45 0 82 -6 101 -15z"/>
<path d="M1709 2461 l-29 -29 0 -487 0 -487 29 -29 29 -29 242 0 c270 0 290 4
309 63 13 40 4 72 -29 102 -20 18 -39 20 -206 23 l-184 3 0 130 0 129 183 0
c203 0 217 4 237 64 12 39 3 71 -30 101 -20 18 -39 20 -206 23 l-184 4 0 128
0 129 184 3 c167 3 186 5 206 23 33 30 42 62 29 102 -19 59 -39 63 -309 63
l-242 0 -29 -29z"/>
<path d="M2599 2475 c-15 -8 -32 -29 -38 -46 -15 -44 -15 -924 0 -968 21 -59
97 -79 146 -37 l28 24 5 313 5 313 204 -318 c113 -174 216 -326 229 -337 34
-26 75 -24 111 7 l31 26 0 493 0 493 -31 26 c-41 35 -83 34 -120 -3 l-29 -29
0 -308 c0 -258 -2 -306 -13 -294 -8 8 -103 153 -212 323 -108 169 -207 314
-218 322 -27 19 -64 19 -98 0z"/>
<path d="M3573 2478 c-29 -14 -53 -66 -46 -100 3 -14 16 -37 30 -50 23 -21 34
-23 164 -26 l139 -4 0 -215 0 -215 29 -29 c31 -31 75 -38 113 -18 40 22 48 66
48 279 l0 200 119 0 c135 0 176 10 196 51 23 43 18 77 -14 110 l-29 29 -364
-1 c-234 0 -371 -4 -385 -11z"/>
<path d="M3908 1735 c-42 -23 -48 -45 -48 -165 0 -110 0 -112 29 -141 33 -33
67 -37 111 -14 40 21 53 68 48 181 -3 84 -7 97 -28 119 -32 31 -77 39 -112 20z"/>
</g>
</svg>
